HIERARCHY
ROOT Hips
{
	OFFSET 0.00000 0.00000 0.00000
	CHANNELS 6 Xposition Yposition Zposition Zrotation Yrotation Xrotation 
	JOINT LHipJoint
	{
		OFFSET 0 0 0
		CHANNELS 3 Zrotation Yrotation Xrotation
		JOINT LeftHip
		{
			OFFSET 1.80322 -1.53100 0.99595
			CHANNELS 3 Zrotation Yrotation Xrotation
			JOINT LeftKnee
			{
				OFFSET 2.25177 -6.18669 0.00000
				CHANNELS 3 Zrotation Yrotation Xrotation
				JOINT LeftAnkle
				{
					OFFSET 2.26601 -6.22582 0.00000
					CHANNELS 3 Zrotation Yrotation Xrotation
					JOINT LeftToe
					{
						OFFSET 0.23701 -0.65119 2.15848
						CHANNELS 3 Zrotation Yrotation Xrotation
						End Site
						{
							OFFSET 0.00000 -0.00000 1.12949
						}
					}
				}
			}
		}
	}
	JOINT RHipJoint
	{
		OFFSET 0 0 0
		CHANNELS 3 Zrotation Yrotation Xrotation
		JOINT RightHip
		{
			OFFSET -1.93977 -1.53100 0.99595
			CHANNELS 3 Zrotation Yrotation Xrotation
			JOINT RightKnee
			{
				OFFSET -2.28036 -6.26523 0.00000
				CHANNELS 3 Zrotation Yrotation Xrotation
				JOINT RightAnkle
				{
					OFFSET -2.25490 -6.19528 0.00000
					CHANNELS 3 Zrotation Yrotation Xrotation
					JOINT RightToe
					{
						OFFSET -0.28375 -0.77960 2.23137
						CHANNELS 3 Zrotation Yrotation Xrotation
						End Site
						{
							OFFSET -0.00000 -0.00000 1.17899
						}
					}
				}
			}
		}
	}
	JOINT lowerback
	{
		OFFSET 0 0 0
		CHANNELS 3 Zrotation Yrotation Xrotation
		JOINT Chest
		{
			OFFSET -0.00088 2.12090 -0.02806
			CHANNELS 3 Zrotation Yrotation Xrotation
			JOINT Chest2
			{
				OFFSET -0.00286 2.09666 0.12974
				CHANNELS 3 Zrotation Yrotation Xrotation
				JOINT lowerneck
				{
					OFFSET 0 0 0
					CHANNELS 3 Zrotation Yrotation Xrotation
					JOINT Neck
					{
						OFFSET 0.07328 1.83526 0.07290
						CHANNELS 3 Zrotation Yrotation Xrotation
						JOINT Head
						{
							OFFSET -0.06683 1.74974 -0.49542
							CHANNELS 3 Zrotation Yrotation Xrotation
							End Site
							{
								OFFSET -0.03398 1.85163 -0.17573
							}
						}
					}
				}
				JOINT LeftCollar
				{
					OFFSET 0 0 0
					CHANNELS 3 Zrotation Yrotation Xrotation
					JOINT LeftShoulder
					{
						OFFSET 3.02113 1.18018 0.40602
CHANNELS 3 Zrotation Xrotation Yrotation
						JOINT LeftElbow
						{
OFFSET 0 -4.585380 -0.000000
CHANNELS 3 Zrotation Xrotation Yrotation
							JOINT LeftWrist
							{
OFFSET 0 -2.689350 -0.000000
CHANNELS 3 Zrotation Xrotation Yrotation
								JOINT lhand
								{
									OFFSET 0 0 0
CHANNELS 3 Zrotation Xrotation Yrotation
									JOINT LFingers
									{
OFFSET 0 -0.585060 -0.000000
CHANNELS 3 Zrotation Xrotation Yrotation
										End Site
										{
OFFSET 0 -0.471690 -0.000000
										}
									}
								}
								JOINT LThumb
								{
OFFSET 0 0.000000 0.000000
CHANNELS 3 Zrotation Xrotation Yrotation
									End Site
									{
OFFSET 0 -0.478890 0.478890
									}
								}
							}
						}
					}
				}
				JOINT RightCollar
				{
					OFFSET 0 0 0
					CHANNELS 3 Zrotation Yrotation Xrotation
					JOINT RightShoulder
					{
						OFFSET -2.95074 1.18843 0.31430
CHANNELS 3 Zrotation Xrotation Yrotation
						JOINT RightElbow
						{
OFFSET 0 -4.474500 -0.000000
CHANNELS 3 Zrotation Xrotation Yrotation
							JOINT RightWrist
							{
OFFSET 0 -2.938960 -0.000000
CHANNELS 3 Zrotation Xrotation Yrotation
								JOINT rhand
								{
									OFFSET 0 0 0
CHANNELS 3 Zrotation Xrotation Yrotation
									JOINT RFingers
									{
OFFSET 0 -0.405090 -0.000000
CHANNELS 3 Zrotation Xrotation Yrotation
										End Site
										{
OFFSET 0 -0.326600 -0.000000
										}
									}
								}
								JOINT RThumb
								{
OFFSET 0 0.000000 0.000000
CHANNELS 3 Zrotation Xrotation Yrotation
									End Site
									{
OFFSET 0 -0.331580 0.331580
									}
								}
							}
						}
					}
				}
			}
		}
	}
}
MOTION
Frames: 8
Frame Time: 0.008333333333333333
-0.624131 12.846783 4.137403 99.006789 80.947252 134.588484 0.000000 0.000000 0.000000 -19.218682 -27.430994 -89.420763 13.721885 19.027138 71.353034 -0.902613 -17.902932 -0.704865 2.359236 9.575937 27.615222 0.000000 0.000000 0.000000 6.499167 -0.792669 -35.794069 -15.750939 -19.559877 77.487819 -1.531405 26.656648 -27.283569 -2.213589 9.297501 -26.730422 0.260425 2.974673 26.765069 -2.039790 4.068703 5.230169 -3.802337 2.046359 -8.798258 4.284424 0.669612 -18.756066 -7.801730 0.668700 -4.161887 -3.155608 0.231135 1.836648 0.000000 0.000000 0.000000 12.542543 27.703282 -39.243124 40.508234 -48.367565 18.818423 8.481176 0.842284 -16.443527 0.000000 0.000000 0.000000 -7.125000 0.000000 0.000000 -18.038402 45.782488 0.360207 0.000000 0.000000 0.000000 -16.942265 -61.013262 48.941816 -18.303015 -28.536903 -4.696461 -19.919421 6.718253 0.859238 0.000000 0.000000 0.000000 7.125000 0.000000 0.000000 5.285114 30.869194 1.831687
-0.521250 13.180184 3.982141 74.448731 82.025951 109.579503 0.000000 0.000000 0.000000 -17.829082 -26.482086 -86.699975 12.793956 18.706195 68.483974 -0.583127 -15.508920 -2.682980 1.737242 8.294038 23.611784 0.000000 0.000000 0.000000 6.394950 -0.661549 -33.499472 -13.791330 -19.048231 71.565130 -1.798938 24.028345 -27.510168 -2.157237 9.186196 -26.379522 -0.415273 3.383217 24.998009 -2.210710 4.339723 4.593299 -3.595159 2.160451 -8.629897 4.009680 0.413357 -18.483627 -7.230093 0.351194 -4.321086 -3.103833 0.091497 1.851822 0.000000 0.000000 0.000000 13.223370 27.169672 -39.030078 42.508401 -49.487163 20.326438 8.404630 1.601733 -17.013635 0.000000 0.000000 0.000000 -7.125000 0.000000 0.000000 -18.316378 46.317445 0.615841 0.000000 0.000000 0.000000 -17.474643 -55.427679 51.492831 -22.961085 -34.041566 -7.118483 -19.303218 -1.368601 0.615330 0.000000 0.000000 0.000000 7.125000 0.000000 0.000000 5.757188 30.603898 2.033424
-0.408787 13.503923 3.825568 46.946507 81.260411 81.454144 0.000000 0.000000 0.000000 -16.311443 -25.675682 -83.679493 11.892198 18.344663 65.646691 -0.263335 -12.539088 -4.679902 1.130301 6.752096 18.983068 0.000000 0.000000 0.000000 6.248852 -1.007097 -31.111551 -11.830393 -18.317776 65.449880 -1.826715 21.578930 -26.744699 -2.100423 9.072238 -26.021693 -0.877208 3.549161 23.217895 -2.546120 4.376040 3.918428 -3.612714 2.164605 -8.460900 3.802748 0.276327 -18.314380 -6.630260 0.168332 -4.137795 -2.868630 0.003824 1.863510 0.000000 0.000000 0.000000 13.994025 26.631152 -38.282081 44.893789 -50.716227 22.156563 9.031893 1.609046 -17.608866 0.000000 0.000000 0.000000 -7.125000 0.000000 0.000000 -17.973902 46.966631 0.900405 0.000000 0.000000 0.000000 -16.931732 -49.754154 53.438522 -27.414294 -38.570815 -9.756649 -18.836162 -4.601627 0.114416 0.000000 0.000000 0.000000 7.125000 0.000000 0.000000 6.092447 30.072069 2.230768
-0.293413 13.810366 3.665155 25.526395 78.689200 59.232942 0.000000 0.000000 0.000000 -14.504528 -24.841045 -80.540207 11.098703 17.982863 63.101499 0.007558 -9.040483 -6.481999 0.679066 5.267207 14.672600 0.000000 0.000000 0.000000 6.130064 -1.740923 -29.018231 -10.048041 -17.435866 59.647738 -1.578093 19.508813 -24.636856 -2.108098 9.087667 -26.070065 -0.902534 3.696722 21.625199 -3.182646 4.483134 3.124589 -4.244934 2.187752 -8.440408 4.494604 0.273104 -18.067267 -6.212335 -0.016531 -3.776857 -2.870324 -0.105117 1.933625 0.000000 0.000000 0.000000 15.636262 25.969339 -37.473453 47.319992 -51.855249 24.050031 9.690286 1.325379 -18.008832 0.000000 0.000000 0.000000 -7.125000 0.000000 0.000000 -17.527213 47.437275 1.085877 0.000000 0.000000 0.000000 -15.922765 -43.888996 54.364038 -31.189060 -41.889416 -12.196401 -18.386100 -3.864361 -0.911098 0.000000 0.000000 0.000000 7.125000 0.000000 0.000000 6.379548 28.994420 2.501774
-0.185649 14.100359 3.510455 12.246714 74.668135 45.072419 0.000000 0.000000 0.000000 -12.817535 -23.661635 -77.378109 10.402097 17.629551 60.823653 0.181381 -5.441083 -7.948804 0.374169 3.925483 10.867449 0.000000 0.000000 0.000000 5.897253 -2.755558 -27.643289 -8.589991 -16.535329 54.659236 -1.249902 17.250668 -21.849556 -2.254059 9.376053 -26.979213 -0.783807 3.677444 20.164333 -3.862041 4.407616 2.193317 -4.971558 2.114894 -8.621768 4.783475 0.356581 -17.576709 -5.498370 -0.006983 -3.299518 -2.677242 -0.100059 2.004848 0.000000 0.000000 0.000000 17.089481 25.581033 -35.670238 49.713521 -52.878739 25.945718 10.274127 0.815305 -18.211298 0.000000 0.000000 0.000000 -7.125000 0.000000 0.000000 -17.070133 47.711022 1.174200 0.000000 0.000000 0.000000 -14.788270 -38.318777 55.446982 -34.539138 -44.477838 -14.490254 -18.468209 -3.376934 -0.726506 0.000000 0.000000 0.000000 7.125000 0.000000 0.000000 6.326987 29.187855 2.451645
-0.086545 14.367092 3.364843 4.931078 69.721414 36.687309 0.000000 0.000000 0.000000 -11.754325 -22.062777 -74.006887 9.781759 17.285086 58.756091 0.261756 -1.996122 -9.186460 0.183370 2.754603 7.596610 0.000000 0.000000 0.000000 5.668178 -4.427857 -26.995274 -7.436999 -15.688199 50.506713 -1.161648 12.403411 -19.890723 -2.648885 10.103041 -29.311707 -1.100210 3.961221 18.483681 -4.039887 4.711708 1.588922 -4.953568 2.262997 -8.357621 4.117107 0.104916 -17.654144 -4.818654 -0.257194 -2.549281 -2.349267 -0.219253 2.251499 0.000000 0.000000 0.000000 17.900434 24.497178 -33.981057 51.379948 -53.536866 27.280200 11.276403 1.124830 -18.196730 0.000000 0.000000 0.000000 -7.125000 0.000000 0.000000 -16.142546 47.834331 1.157259 0.000000 0.000000 0.000000 -15.658130 -33.468251 55.130871 -37.997505 -46.835479 -16.964547 -18.097129 -5.522512 0.307895 0.000000 0.000000 0.000000 7.125000 0.000000 0.000000 6.687142 30.267740 2.419393
-0.015499 14.602479 3.237847 0.571064 64.382452 31.142297 0.000000 0.000000 0.000000 -11.016122 -20.041908 -70.607945 9.214719 16.943733 56.829307 0.266166 1.169708 -10.250176 0.075279 1.766877 4.861823 0.000000 0.000000 0.000000 6.192587 -6.949405 -27.455988 -6.539890 -14.931288 47.110796 -1.195034 5.778515 -19.571948 -3.027780 10.739688 -31.407173 -1.236034 4.111506 17.102389 -4.334652 4.873031 0.922592 -5.153938 2.333484 -8.298940 3.932084 0.033429 -17.776625 -4.177868 -0.367762 -1.514329 -2.122125 -0.272841 2.620765 0.000000 0.000000 0.000000 19.301592 23.530396 -32.013152 52.511143 -53.959353 28.192395 12.173520 1.651843 -17.984139 0.000000 0.000000 0.000000 -7.125000 0.000000 0.000000 -15.236662 47.750782 1.057345 0.000000 0.000000 0.000000 -16.155826 -29.372069 54.728658 -40.934371 -48.612966 -19.137593 -17.629461 -8.026007 1.195201 0.000000 0.000000 0.000000 7.125000 0.000000 0.000000 7.126076 31.186801 2.422717
0.021651 14.812208 3.130901 -1.645994 58.850133 27.621771 0.000000 0.000000 0.000000 -10.714351 -17.916132 -66.973942 8.584426 16.532573 54.641257 0.211389 4.179587 -11.251934 0.017208 0.845084 2.322779 0.000000 0.000000 0.000000 7.257642 -9.755200 -28.805084 -5.792353 -14.223787 44.141991 -1.180799 0.521826 -20.384303 -3.103755 10.861081 -31.812746 -1.788743 4.258144 15.881724 -4.426569 4.973031 0.267162 -4.896706 2.393491 -8.367010 3.739871 -0.001811 -17.841272 -3.743817 -0.420750 -0.276431 -1.962820 -0.301461 3.060787 0.000000 0.000000 0.000000 20.637131 22.569373 -29.885067 52.951571 -54.118713 28.548819 12.460989 2.087506 -17.613919 0.000000 0.000000 0.000000 -7.125000 0.000000 0.000000 -14.839742 47.427547 0.907949 0.000000 0.000000 0.000000 -17.189760 -25.967904 54.015751 -42.951330 -49.724249 -20.663622 -18.540976 -8.644356 1.940920 0.000000 0.000000 0.000000 7.125000 0.000000 0.000000 6.462176 31.983961 2.069829
